<?xml version="1.0" encoding="UTF-8" standalone="no"?>
<!-- Created with Inkscape (http://www.inkscape.org/) -->

<svg
   version="1.1"
   id="svg2"
   width="5333.3335"
   height="5333.3335"
   viewBox="0 0 5333.3335 5333.3335"
   sodipodi:docname="Pattern2.eps"
   xmlns:inkscape="http://www.inkscape.org/namespaces/inkscape"
   xmlns:sodipodi="http://sodipodi.sourceforge.net/DTD/sodipodi-0.dtd"
   xmlns="http://www.w3.org/2000/svg"
   xmlns:svg="http://www.w3.org/2000/svg">
  <defs
     id="defs6" />
  <sodipodi:namedview
     id="namedview4"
     pagecolor="#ffffff"
     bordercolor="#000000"
     borderopacity="0.25"
     inkscape:showpageshadow="2"
     inkscape:pageopacity="0.0"
     inkscape:pagecheckerboard="0"
     inkscape:deskcolor="#d1d1d1" />
  <g
     id="g8"
     inkscape:groupmode="layer"
     inkscape:label="ink_ext_XXXXXX"
     transform="matrix(1.3333333,0,0,-1.3333333,0,5333.3333)">
    <g
       id="g10"
       transform="scale(0.1)">
      <path
         d="m 12364,40000 h -708.8 c 293.8,-472.4 495.2,-908 495.2,-908 0,0 72.3,415.9 213.6,908"
         style="fill:#f8b1bf;fill-opacity:1;fill-rule:nonzero;stroke:none"
         id="path12" />
      <path
         d="M 956.543,40000 H 508.031 c -22.062,-292.6 -50.097,-492.8 -50.097,-492.8 0,0 203.621,221.1 498.609,492.8"
         style="fill:#f8b1bf;fill-opacity:1;fill-rule:nonzero;stroke:none"
         id="path14" />
      <path
         d="m 29917.9,40000 h -885.6 c 64.8,-540.8 64.4,-1005.3 64.4,-1005.3 0,0 364.5,526 821.2,1005.3"
         style="fill:#f8b1bf;fill-opacity:1;fill-rule:nonzero;stroke:none"
         id="path16" />
      <path
         d="m 40000,5209.2 v 883.2 c -232.7,127.3 -384.3,222.2 -384.3,222.2 0,0 221.2,-514.2 384.3,-1105.4"
         style="fill:#f8b1bf;fill-opacity:1;fill-rule:nonzero;stroke:none"
         id="path18" />
      <path
         d="m 23543.6,40000 h -335.4 c 206.3,-237.7 339.2,-413.7 339.2,-413.7 0,0 -6.9,165.1 -3.8,413.7"
         style="fill:#f8b1bf;fill-opacity:1;fill-rule:nonzero;stroke:none"
         id="path20" />
      <path
         d="m 36624.8,1850.1 c -998,-190.9 -950.3,2665.4 -950.3,2665.4 0,0 -1999.5,-2790 -2504,-1309.7 -504.9,1481.3 3389.3,3982.9 3389.3,3982.9 942.5,-2582.4 909.6,-5176.9 65,-5338.6 z m -4921.2,4234.3 c -1360.9,772.6 -109.5,5228.7 -109.5,5228.7 2419.2,-1305.5 4117.1,-3267.6 3592.8,-3949.2 -619.5,-805.3 -2480.2,1362.4 -2480.2,1362.4 0,0 357,-3413.9 -1003.1,-2641.9 z m 96.7,-3104.2 c -752.8,-1372 -5226.5,-185.1 -5226.5,-185.1 1270.4,2437.8 3207.7,4163.9 3896.8,3649.5 814.2,-607.8 -1326.3,-2499.7 -1326.3,-2499.7 0,0 3408.3,406.4 2656,-964.7 z M 26287.6,4915 c -1494.7,463.5 -1225.8,5084.1 -1225.8,5084.1 2642.6,-757.6 4721,-2311 4354.6,-3089 -432.8,-919.2 -2714.2,800.2 -2714.2,800.2 0,0 1079.2,-3258.5 -414.6,-2795.3 z m -3209.1,11988.8 c 2718.5,-408.4 4980.9,-1678.9 4718.6,-2497.9 -309.9,-967.7 -2795.2,441.2 -2795.2,441.2 0,0 1492.9,-3090.9 -48.3,-2825.4 -1542.3,265.6 -1875.1,4882.1 -1875.1,4882.1 z M 20810.1,1837.2 c -447.5,2712.3 65.7,5255.8 925.6,5258.1 1016.1,2.6 439.9,-2795.4 439.9,-2795.4 0,0 2481.9,2371.1 2703.3,822.9 221.6,-1549.2 -4068.8,-3285.6 -4068.8,-3285.6 z m -379.6,9831.6 c 806.6,617.8 2043.7,-1957.2 2043.7,-1957.2 0,0 537.6,3390.2 1651.9,2292.7 1115,-1098.1 -1245.9,-5079.2 -1245.9,-5079.2 -1999.4,1886.5 -3132.4,4220.8 -2449.7,4743.7 z M 19549.4,6965 c -950.9,-358.1 -1390.3,2464.7 -1390.3,2464.7 0,0 -1495.2,-3089.8 -2244.4,-1716.9 -749.7,1373.7 2661.8,4501.7 2661.8,4501.7 C 19944.8,9830.3 20354.2,7268 19549.4,6965 Z m 349,-2585.6 c -305.5,-969.1 -2797.2,428.3 -2797.2,428.3 0,0 1507.2,-3084 -35.3,-2825.6 -1543.5,258.5 -1897.6,4873.4 -1897.6,4873.4 2720.3,-395.8 4988.6,-1655.9 4730.1,-2476.1 z M 15006.8,2862.5 C 14300.7,1465.9 9789.49,2501.2 9789.49,2501.2 10977,4980.5 12855,6771 13561.1,6280.1 c 834.2,-580 -1241.4,-2543 -1241.4,-2543 0,0 3392.8,521.1 2687.1,-874.6 z M 8279.51,3584 c -1544.43,252.7 -1916.05,4866.2 -1916.05,4866.2 2721.82,-385.5 4994.84,-1637 4739.44,-2458.1 -301.8,-970.2 -2798.78,417.7 -2798.78,417.7 0,0 1518.84,-3078.2 -24.61,-2825.8 z M 6958.93,3443.2 c -393.86,-1514.6 -5022,-1459.6 -5022,-1459.6 634.61,2674.8 2090.18,4822.8 2884.29,4492.8 938.29,-389.8 -673.73,-2748.3 -673.73,-2748.3 0,0 3205.03,1228.7 2811.44,-284.9 z m -4479.45,9949 C 4967.2,12222.5 6771.03,10357.3 6285.2,9647.8 c -574.04,-838.4 -2551.77,1223.1 -2551.77,1223.1 0,0 545.31,-3389 -855.41,-2693.3 -1401.61,696.1 -398.54,5214.6 -398.54,5214.6 z m 791.99,8478.7 c 979.06,271.7 1164.57,-2579.1 1164.57,-2579.1 0,0 1765.21,2943.9 2388.82,1509.6 624.01,-1435.1 -3053.18,-4246 -3053.18,-4246 -1149.94,2496.9 -1328.82,5085.5 -500.21,5315.5 z m -827.86,4359.3 c 2722.41,381.4 5252.68,-193.5 5234.04,-1053.2 -22.02,-1015.9 -2805.24,-371.7 -2805.24,-371.7 0,0 2310.07,-2538.9 756.93,-2722.6 -1554.13,-183.8 -3185.73,4147.5 -3185.73,4147.5 z m -490.23,2911.1 c 222.42,991.4 2823.36,-190.3 2823.36,-190.3 0,0 -1762.53,2945.5 -203.73,2818.5 1559.79,-127 2302.87,-4695.5 2302.87,-4695.5 -2744.07,164.4 -5110.74,1228.2 -4922.5,2067.3 z m 2988.57,6848.1 c 875.42,515.8 1792.16,-2189.9 1792.16,-2189.9 0,0 943.47,3300.4 1916.92,2076.3 974.07,-1224.9 -1850.68,-4891.4 -1850.68,-4891.4 -1756.8,2114.4 -2599.31,4568.5 -1858.4,5005 z m 4563.41,-7277.5 c 0,0 2048.94,2754 2526.94,1264.9 478.4,-1490.1 -3459.85,-3921.8 -3459.85,-3921.8 -896.22,2598.8 -817.06,5192.4 30.31,5338.9 1001.21,173.1 902.6,-2682 902.6,-2682 z m 674.04,7834.2 c 2479.6,-1186.9 4270.4,-3064.5 3779.7,-3770.7 -579.8,-834.4 -2543.2,1240.8 -2543.2,1240.8 0,0 521.8,-3392.6 -874.1,-2687.3 -1396.72,705.8 -362.4,5217.2 -362.4,5217.2 z m 8827.9,-1996.4 c -248.2,-985.3 -2817.4,263.7 -2817.4,263.7 0,0 1685.1,-2990.4 130.1,-2822.8 -1555.9,167.7 -2179.6,4753.9 -2179.6,4753.9 2738.8,-235.8 5077,-1360.9 4866.9,-2194.8 z m 2725.5,-4024.9 c 304.6,-1535.1 -3886.2,-3499.8 -3886.2,-3499.8 -592.7,2684.3 -217.1,5251.8 641.5,5300.3 1014.4,57.3 589.6,-2767.7 589.6,-2767.7 0,0 2350.7,2501.2 2655.1,967.2 z m -392.2,7289 c 1013.8,-67.2 246.6,-2819 246.6,-2819 0,0 2639.1,2195 2753.6,635.2 114.5,-1560.8 -4285,-2998.3 -4285,-2998.3 -260.1,2736.7 426.7,5238.9 1284.8,5182.1 z m 5840.5,-9478.6 c -2528.4,-1078.9 -5121,-1184.6 -5327.5,-349.8 -243.9,986.4 2610.9,1091.2 2610.9,1091.2 0,0 -2892.8,1847.8 -1441.4,2430.6 1452.2,583.1 4158,-3172 4158,-3172 z m -684.7,8765.4 c 1802.7,-2075.4 2698.7,-4510.5 1967.5,-4963.1 -863.9,-534.9 -1839.6,2150.1 -1839.6,2150.1 0,0 -871,-3320.2 -1871,-2117.7 -1000.7,1203.2 1743.1,4930.7 1743.1,4930.7 z M 29829,28722.8 c 0,0 777.6,3343.3 1810.9,2169.3 1034,-1174.7 -1604.3,-4977.6 -1604.3,-4977.6 -1860.1,2024.1 -2824,4433.2 -2105.8,4906.1 848.6,558.8 1899.2,-2097.8 1899.2,-2097.8 z m 768.2,8361.2 c 1010.7,104.6 717.9,-2737.1 717.9,-2737.1 0,0 2231.6,2608 2607.2,1089.8 375.8,-1519.2 -3718.9,-3677.1 -3718.9,-3677.1 -717.2,2653.8 -461.6,5236 393.8,5324.4 z m 6971.3,-206.6 c 900,-2597.5 824.6,-5191.2 -22.6,-5339 -1000.9,-174.5 -906.4,2680.7 -906.4,2680.7 0,0 -2045,-2756.9 -2525.2,-1268.5 -480.5,1489.4 3454.2,3926.8 3454.2,3926.8 z m 328.7,-9506.6 c 337.9,-2728.1 -277.2,-5248.9 -1136.6,-5216.6 -1015.3,38.3 -326.9,2810.8 -326.9,2810.8 0,0 -2575.4,-2269.2 -2734.3,-713.4 -159,1556.9 4197.8,3119.2 4197.8,3119.2 z m -1591,-11652.1 c -1971.7,1915.6 -3070.4,4266.3 -2380.1,4779.1 815.6,606 2014.8,-1986.9 2014.8,-1986.9 0,0 587.2,3381.9 1685.3,2268.3 1098.8,-1114.3 -1320,-5060.5 -1320,-5060.5 z m -5537.6,3820.9 c 2464.3,-1218.2 4231.3,-3118.4 3731.7,-3818.3 -590.4,-827 -2527.4,1272.9 -2527.4,1272.9 0,0 478.9,-3399 -908,-2676 -1387.7,723.4 -296.3,5221.4 -296.3,5221.4 z m 2728.2,1398.5 c -869.3,-526.2 -1818,2168.5 -1818,2168.5 0,0 -904.3,-3311.3 -1892.2,-2098.8 -988.5,1213.2 1792.6,4913 1792.6,4913 1781.7,-2093.5 2653.3,-4537.5 1917.6,-4982.7 z m -140.8,5841.8 c -1389.3,720.4 -307.7,5220.7 -307.7,5220.7 2467,-1212.8 4238.1,-3109.2 3740,-3810.1 -588.6,-828.3 -2530.1,1267.3 -2530.1,1267.3 0,0 486.2,-3397.9 -902.2,-2677.9 z m -3680.6,-12147 c 1099,-2519.7 1225.3,-5111.4 392.1,-5324.5 -984.3,-251.8 -1111.9,2602.1 -1111.9,2602.1 0,0 -1824.6,-2907.4 -2419,-1460.7 -594.7,1447.5 3138.8,4183.1 3138.8,4183.1 z m -4324.6,4148.7 c 525.2,869.8 2617.4,-1075.4 2617.4,-1075.4 0,0 -737.9,3352.3 700.3,2737.7 1439,-614.9 695.6,-5183.3 695.6,-5183.3 -2550.4,1025.7 -4457.8,2784.9 -4013.3,3521 z m 2285.3,8553.1 c 1418.8,-660.4 530.7,-5202.8 530.7,-5202.8 -2516.6,1106.2 -4367.2,2925 -3899.5,3646.7 552.6,852.6 2582,-1158 2582,-1158 0,0 -631.1,3374 786.8,2714.1 z m -4782.9,-4213.9 c 988.8,233.7 1064.1,-2622.1 1064.1,-2622.1 0,0 1877.5,2873.6 2445.3,1416.3 568.2,-1458.2 -3214.7,-4125.1 -3214.7,-4125.1 -1052.8,2539.5 -1131.6,5133 -294.7,5330.9 z m -1895,-5296.5 c 1484.3,-2313.8 2019.6,-4852.7 1230.8,-5195.1 -932.1,-404.6 -1510.2,2393.1 -1510.2,2393.1 0,0 -1341,-3159.8 -2157,-1825.6 -816.6,1335 2436.4,4627.6 2436.4,4627.6 z m 2631.5,8077.4 c 430.6,-1504.6 -3583.2,-3809.5 -3583.2,-3809.5 -812.8,2626.1 -651,5215.8 200.6,5335.2 1006.2,141.1 816.6,-2709.3 816.6,-2709.3 0,0 2135.7,2687.2 2566,1183.6 z m -5364.2,-3490.4 c 2459.5,-1227.8 4219.1,-3134.8 3716.7,-3832.8 -593.5,-824.7 -2522.3,1282.7 -2522.3,1282.7 0,0 465.6,-3400.8 -918.4,-2672.5 -1384.9,728.9 -276,5222.6 -276,5222.6 z m -4360.4,-5995.8 c 703.3,733.3 2317.5,-1623.7 2317.5,-1623.7 0,0 15.9,3432.5 1284.1,2517.2 1269,-915.8 -459.1,-5209.6 -459.1,-5209.6 -2263.1,1560.6 -3737.8,3695.5 -3142.5,4316.1 z m -1072.7,-3556.1 c 1010.5,105.8 721.3,-2736.3 721.3,-2736.3 0,0 2228.4,2610.8 2605.8,1093.1 377.7,-1518.7 -3714.3,-3681.7 -3714.3,-3681.7 -720.4,2652.9 -468.1,5235.4 387.2,5324.9 z m -4170.02,2152.1 c 80.01,1013 2821.92,210.9 2821.92,210.9 0,0 -2161.32,2666.7 -600.2,2761.4 1562.1,94.8 2943.6,-4322.7 2943.6,-4322.7 -2739.7,-225.3 -5233.03,493.2 -5165.32,1350.4 z M 6638.74,11208.7 c 439.5,916.1 2708.43,-819.7 2708.43,-819.7 0,0 -1055.66,3266.1 434.75,2792.2 C 11273.3,12706.9 10970.9,8088.3 10970.9,8088.3 8333.92,8865 6266.78,10433.4 6638.74,11208.7 Z m 681.26,1403 c -985.11,-248.9 -1104.24,2605.4 -1104.24,2605.4 0,0 -1833.23,-2902 -2423.29,-1453.6 -590.45,1449.3 3151.15,4173.8 3151.15,4173.8 1091.53,-2523 1210.13,-5115 376.38,-5325.6 z m 4547.3,6340.3 c -550.5,-854 -2584.88,1151.6 -2584.88,1151.6 0,0 639.49,-3372.4 -780.06,-2716 -1420.46,656.8 -543.63,5201.4 -543.63,5201.4 2519.37,-1099.9 4374.37,-2914.2 3908.57,-3637 z m 4524.4,8076 c -852.8,-552.5 -1883.6,2111.8 -1883.6,2111.8 0,0 -802.4,-3337.4 -1827,-2155.8 -1025.2,1182.4 1641.2,4965.6 1641.2,4965.6 1845,-2037.8 2791,-4454 2069.4,-4921.6 z m -511.8,-2460.6 c 0,0 2305.4,-2543.1 751.9,-2724 -1554.5,-180.9 -3178.1,4153.4 -3178.1,4153.4 2723.1,376.4 5252.3,-203.1 5232.1,-1062.8 -23.9,-1015.8 -2805.9,-366.6 -2805.9,-366.6 z M 17195,20235.7 c 127,-1559.8 -4261,-3032.1 -4261,-3032.1 -281.8,2734.5 385.1,5242.1 1243.6,5192.1 1014.4,-59.1 269.1,-2817 269.1,-2817 0,0 2621.5,2215.9 2748.3,657 z m -5265.6,6100.5 c 1392.1,-714.9 328.4,-5219.5 328.4,-5219.5 -2471.76,1203 -4250.38,3092.3 -3755.06,3795.3 585.24,830.5 2535.16,-1257.3 2535.16,-1257.3 0,0 -499.8,3395.9 891.5,2681.5 z M 34206.6,10362 c -939.8,386.2 663.2,2750.9 663.2,2750.9 0,0 -3200.3,-1241.1 -2812.5,274 388,1516.1 5016.3,1478.9 5016.3,1478.9 C 36449.3,12188.7 35002,10035 34206.6,10362 Z m 5633.7,-8093.2 c 57.7,3.8 110.8,-1.8 159.7,-15.7 v 1347 c -113.7,-116.8 -291.7,-163.6 -556.1,-106.1 -1529.1,332.8 -1659.9,4959.4 -1659.9,4959.4 799.4,-156.1 1555.5,-386 2216,-653.4 v 1588.7 c -2083.3,688.4 -3581.4,1802.7 -3314.2,2475.9 374.9,944.4 2758.8,-629.7 2758.8,-629.7 0,0 -1279.8,3185 239.9,2815.6 113.3,-27.6 218.2,-78.9 315.5,-150.1 v 3109.9 c -676.7,-676.1 -1779.3,-1570.2 -2049.8,-540.7 -224,852.3 966.7,1927.7 2049.8,2704.7 v 2123.2 c -787.4,-348.3 -1430.2,-559.7 -1430.2,-559.7 -265.2,2736.2 416.7,5239.7 1274.9,5184.5 57.3,-3.6 108.9,-16 155.3,-35.9 v 1528.1 c -1868.3,1009.5 -3096.7,2305.7 -2731.9,2912 523.9,870.6 2619.1,-1071.4 2619.1,-1071.4 0,0 -499,2250.5 112.8,2726 v 1507.7 c -353.5,-53 -620.2,73.4 -657.9,545.1 -32.2,404.3 238.7,802.2 657.9,1170 v 2151.6 c -440.6,-245.6 -747.3,-393.3 -747.3,-393.3 -250.7,1083.2 -342.9,2148.9 -306.9,3037.8 H 36765 c 857.7,-805.8 1283.9,-1565.5 1007.1,-1955.8 -587.7,-828.8 -2531.3,1265 -2531.3,1265 0,0 489.5,-3397.5 -899.6,-2678.8 -789.8,408.6 -783,2038.4 -629.8,3369.6 h -2083.3 c -70.3,-1494.9 -3374.4,-3692.1 -3374.4,-3692.1 -512.8,1339 -760.3,2685.4 -760.4,3692.1 h -2285.2 c -149.7,-1456.4 -712.1,-3065.1 -712.1,-3065.1 -1523.4,949.7 -2722.2,2159.5 -3213.2,3065.1 H 19453 c 20.3,-1800.6 -396.9,-3178.9 -1027.7,-3193 -1015.8,-22.7 -494.8,2786.2 -494.8,2786.2 0,0 -2434.7,-2419.6 -2686.6,-876 -68.8,421.2 197.8,863 621.9,1282.8 h -1787.6 c -258,-1571.9 -1563.3,-3700.2 -1563.3,-3700.2 -1297.3,1261 -2216.5,2710.4 -2496.5,3700.2 H 8421.87 c 113.86,-1688.7 -197.39,-2984.5 -799.66,-3043.8 -1011.18,-99.6 -704.46,2740.6 -704.46,2740.6 0,0 -2244.45,-2597 -2612.54,-1077 -104.47,431.4 151.02,912.4 570.55,1380.2 H 3063.37 C 2729.51,39000.8 1011.69,37919.6 0,37355.5 v -2151.6 c 1198.24,1051.3 3607.76,1855.8 3607.76,1855.8 277.64,-2735 -393,-5241.5 -1251.41,-5190.2 -1014.26,60.6 -264.83,2817.3 -264.83,2817.3 0,0 -1276.661,-1075.8 -2091.52,-1198 v -1507.7 c 134.766,104.7 323.406,123.4 583.184,12.8 C 2023.21,31381.2 1286.92,26811.7 1286.92,26811.7 834.594,26992.8 402.473,27197 0,27414.5 v -1528.1 c 774.934,-331.8 96.7852,-2782.6 96.7852,-2782.6 0,0 2634.8048,2200.1 2752.2948,640.5 C 2921.7,22780.4 1272.06,21860.3 0,21297.5 V 19174.3 C 840.156,19776.9 1615.54,20200 1615.54,20200 2371.01,17556.9 2152.79,14971.3 1298.79,14870.4 289.727,14751.3 541.395,17597 541.395,17597 c 0,0 -223.813,-269.4 -541.395,-586.7 v -3109.9 c 1207.86,-883.8 1224.13,-4848 1224.13,-4848 C 800.719,9145.8 390.113,9259.8 0,9388.7 V 7800 C 1568.82,7165.1 2598.54,6319.4 2388.94,5751.7 2125.05,5036.9 697.637,5710.6 0,6092.4 V 5209.2 C 170.918,4589.7 278.023,3885.7 0,3600.1 v -1347 C 581.695,2088.2 564.203,744.801 508.031,0 H 956.543 C 1658.47,646.398 2877.86,1579.2 3103.14,501.297 3137.16,338.602 3120.33,170.5 3063.37,0 H 4875.76 C 5935.42,1181.5 8042.08,2278.6 8042.08,2278.6 8250.69,1491.4 8373.94,710.902 8421.87,0 H 10018.4 C 9873.02,514.098 9899.98,904.199 10136,1079.4 10617.4,1436.9 11232.2,680.301 11655.2,0 h 708.8 c 261.5,911.102 759.4,2083.2 1472.2,1359.9 291.7,-295.9 335.3,-791.599 242,-1359.9 h 1787.6 c 1130.7,1119.4 3381.4,2082.4 3381.4,2082.4 C 19380.6,1362.6 19445.6,653.5 19453,0 h 1829.8 c -260.9,481.203 -322,876.5 -125.6,1101.1 482.9,552.5 1514.9,-483.1 2051,-1101.1 h 335.4 c 11,884.801 148.1,2828.1 1170.1,2160.2 515.1,-336.7 591.4,-1216.497 494.4,-2160.2 h 2285.2 c 0,923.402 208.2,1561.1 611,1644.8 593.7,123.3 832.2,-844.402 928,-1644.8 h 885.6 c 601.1,630.699 1361.8,1180.4 1661.7,343.898 39.2,-109.199 54.1,-224.296 48.5,-343.898 h 2083.3 c 116.4,1011.6 317.2,1850.8 317.2,1850.8 C 35123.4,1313.9 36081.3,642.301 36765,0 h 2180.8 c 52.9,1308.9 383.5,2234.7 894.5,2268.8"
         style="fill:#f8b1bf;fill-opacity:1;fill-rule:nonzero;stroke:none"
         id="path22" />
      <path
         d="m 12514.9,36299.8 c 0,0 1305.3,2128.3 1563.3,3700.2 H 12364 c -141.3,-492.1 -213.6,-908 -213.6,-908 0,0 -201.4,435.6 -495.2,908 h -1636.8 c 280,-989.8 1199.2,-2439.2 2496.5,-3700.2"
         style="fill:#f5839b;fill-opacity:1;fill-rule:nonzero;stroke:none"
         id="path24" />
      <path
         d="m 24340.8,35630 c -114.5,1559.8 -2753.6,-635.2 -2753.6,-635.2 0,0 767.2,2751.8 -246.6,2819 -858.1,56.8 -1544.9,-2445.4 -1284.8,-5182.1 0,0 4399.5,1437.5 4285,2998.3"
         style="fill:#f5839b;fill-opacity:1;fill-rule:nonzero;stroke:none"
         id="path26" />
      <path
         d="m 27929.8,30820.6 c -718.2,-472.9 245.7,-2882 2105.8,-4906.1 0,0 2638.3,3802.9 1604.3,4977.6 -1033.3,1174 -1810.9,-2169.3 -1810.9,-2169.3 0,0 -1050.6,2656.6 -1899.2,2097.8"
         style="fill:#f5839b;fill-opacity:1;fill-rule:nonzero;stroke:none"
         id="path28" />
      <path
         d="m 2356.35,31869.5 c 858.41,-51.3 1529.05,2455.2 1251.41,5190.2 0,0 -2409.52,-804.5 -3607.76,-1855.8 v -1715.1 c 814.859,122.2 2091.52,1198 2091.52,1198 0,0 -749.43,-2756.7 264.83,-2817.3"
         style="fill:#f5839b;fill-opacity:1;fill-rule:nonzero;stroke:none"
         id="path30" />
      <path
         d="m 8602.76,31393.9 c -847.37,-146.5 -926.53,-2740.1 -30.31,-5338.9 0,0 3938.25,2431.7 3459.85,3921.8 -478,1489.1 -2526.94,-1264.9 -2526.94,-1264.9 0,0 98.61,2855.1 -902.6,2682"
         style="fill:#f5839b;fill-opacity:1;fill-rule:nonzero;stroke:none"
         id="path32" />
      <path
         d="m 18685.8,24934 c 20.2,859.7 -2509,1439.2 -5232.1,1062.8 0,0 1623.6,-4334.3 3178.1,-4153.4 1553.5,180.9 -751.9,2724 -751.9,2724 0,0 2782,-649.2 2805.9,366.6"
         style="fill:#f5839b;fill-opacity:1;fill-rule:nonzero;stroke:none"
         id="path34" />
      <path
         d="m 26362.6,21915 c -567.8,1457.3 -2445.3,-1416.3 -2445.3,-1416.3 0,0 -75.3,2855.8 -1064.1,2622.1 -836.9,-197.9 -758.1,-2791.4 294.7,-5330.9 0,0 3782.9,2666.9 3214.7,4125.1"
         style="fill:#f5839b;fill-opacity:1;fill-rule:nonzero;stroke:none"
         id="path36" />
      <path
         d="m 6824.86,20801.4 c -623.61,1434.3 -2388.82,-1509.6 -2388.82,-1509.6 0,0 -185.51,2850.8 -1164.57,2579.1 -828.61,-230 -649.73,-2818.6 500.21,-5315.5 0,0 3677.19,2810.9 3053.18,4246"
         style="fill:#f5839b;fill-opacity:1;fill-rule:nonzero;stroke:none"
         id="path38" />
      <path
         d="m 2878.02,8177.6 c 1400.72,-695.7 855.41,2693.3 855.41,2693.3 0,0 1977.73,-2061.5 2551.77,-1223.1 485.83,709.5 -1318,2574.7 -3805.72,3744.4 0,0 -1003.07,-4518.5 398.54,-5214.6"
         style="fill:#ffffff;fill-opacity:1;fill-rule:nonzero;stroke:none"
         id="path40" />
      <path
         d="m 4147.49,3728.1 c 0,0 1612.02,2358.5 673.73,2748.3 -794.11,330 -2249.68,-1818 -2884.29,-4492.8 0,0 4628.14,-55 5022,1459.6 393.59,1513.6 -2811.44,284.9 -2811.44,284.9"
         style="fill:#f5839b;fill-opacity:1;fill-rule:nonzero;stroke:none"
         id="path42" />
      <path
         d="m 5629.34,22082.7 c 1553.14,183.7 -756.93,2722.6 -756.93,2722.6 0,0 2783.22,-644.2 2805.24,371.7 18.64,859.7 -2511.63,1434.6 -5234.04,1053.2 0,0 1631.6,-4331.3 3185.73,-4147.5"
         style="fill:#f05d71;fill-opacity:1;fill-rule:nonzero;stroke:none"
         id="path44" />
      <path
         d="m 16320,31990.6 c 1555,-167.6 -130.1,2822.8 -130.1,2822.8 0,0 2569.2,-1249 2817.4,-263.7 210.1,833.9 -2128.1,1959 -4866.9,2194.8 0,0 623.7,-4586.2 2179.6,-4753.9"
         style="fill:#ea5983;fill-opacity:1;fill-rule:nonzero;stroke:none"
         id="path46" />
      <path
         d="m 23023.1,31507.2 c -1451.4,-582.8 1441.4,-2430.6 1441.4,-2430.6 0,0 -2854.8,-104.8 -2610.9,-1091.2 206.5,-834.8 2799.1,-729.1 5327.5,349.8 0,0 -2705.8,3755.1 -4158,3172"
         style="fill:#ea5983;fill-opacity:1;fill-rule:nonzero;stroke:none"
         id="path48" />
      <path
         d="m 8502.74,24912 c -495.32,-703 1283.3,-2592.3 3755.06,-3795.3 0,0 1063.7,4504.6 -328.4,5219.5 -1391.3,714.4 -891.5,-2681.5 -891.5,-2681.5 0,0 -1949.92,2087.8 -2535.16,1257.3"
         style="fill:#ea5983;fill-opacity:1;fill-rule:nonzero;stroke:none"
         id="path50" />
      <path
         d="m 3792.47,13763.5 c 590.06,-1448.4 2423.29,1453.6 2423.29,1453.6 0,0 119.13,-2854.3 1104.24,-2605.4 833.75,210.6 715.15,2802.6 -376.38,5325.6 0,0 -3741.6,-2724.5 -3151.15,-4173.8"
         style="fill:#ea5983;fill-opacity:1;fill-rule:nonzero;stroke:none"
         id="path52" />
      <path
         d="m 11102.9,5992.1 c 255.4,821.1 -2017.62,2072.6 -4739.44,2458.1 0,0 371.62,-4613.5 1916.05,-4866.2 1543.45,-252.4 24.61,2825.8 24.61,2825.8 0,0 2496.98,-1387.9 2798.78,-417.7"
         style="fill:#ea5983;fill-opacity:1;fill-rule:nonzero;stroke:none"
         id="path54" />
      <path
         d="m 18501.5,17188.7 c 1384,-728.3 918.4,2672.5 918.4,2672.5 0,0 1928.8,-2107.4 2522.3,-1282.7 502.4,698 -1257.2,2605 -3716.7,3832.8 0,0 -1108.9,-4493.7 276,-5222.6"
         style="fill:#ea5983;fill-opacity:1;fill-rule:nonzero;stroke:none"
         id="path56" />
      <path
         d="m 16119.5,11216.2 c -377.4,1517.7 -2605.8,-1093.1 -2605.8,-1093.1 0,0 289.2,2842.1 -721.3,2736.3 -855.3,-89.5 -1107.6,-2672 -387.2,-5324.9 0,0 4092,2163 3714.3,3681.7"
         style="fill:#ea5983;fill-opacity:1;fill-rule:nonzero;stroke:none"
         id="path58" />
      <path
         d="m 15168.3,6855.5 c 0,0 354.1,-4614.9 1897.6,-4873.4 1542.5,-258.4 35.3,2825.6 35.3,2825.6 0,0 2491.7,-1397.4 2797.2,-428.3 258.5,820.2 -2009.8,2080.3 -4730.1,2476.1"
         style="fill:#ea5983;fill-opacity:1;fill-rule:nonzero;stroke:none"
         id="path60" />
      <path
         d="m 22880.2,6925.1 c 0,0 2360.9,3981.1 1245.9,5079.2 -1114.3,1097.5 -1651.9,-2292.7 -1651.9,-2292.7 0,0 -1237.1,2575 -2043.7,1957.2 -682.7,-522.9 450.3,-2857.2 2449.7,-4743.7"
         style="fill:#ea5983;fill-opacity:1;fill-rule:nonzero;stroke:none"
         id="path62" />
      <path
         d="m 29364.1,15260.6 c 0,0 743.4,4568.4 -695.6,5183.3 -1438.2,614.6 -700.3,-2737.7 -700.3,-2737.7 0,0 -2092.2,1945.2 -2617.4,1075.4 -444.5,-736.1 1462.9,-2495.3 4013.3,-3521"
         style="fill:#ea5983;fill-opacity:1;fill-rule:nonzero;stroke:none"
         id="path64" />
      <path
         d="M 2849.08,23744.3 C 2731.59,25303.9 96.7852,23103.8 96.7852,23103.8 c 0,0 678.1488,2450.8 -96.7852,2782.6 v -4588.9 c 1272.06,562.8 2921.7,1482.9 2849.08,2446.8"
         style="fill:#ea5983;fill-opacity:1;fill-rule:nonzero;stroke:none"
         id="path66" />
      <path
         d="M 0,13900.4 V 9388.7 c 390.113,-128.9 800.719,-242.9 1224.13,-336.3 0,0 -16.27,3964.2 -1224.13,4848"
         style="fill:#ea5983;fill-opacity:1;fill-rule:nonzero;stroke:none"
         id="path68" />
      <path
         d="m 31628.1,40000 h -1710.2 c -456.7,-479.3 -821.2,-1005.3 -821.2,-1005.3 0,0 0.4,464.5 -64.4,1005.3 h -1539 c 0.1,-1006.7 247.6,-2353.1 760.4,-3692.1 0,0 3304.1,2197.2 3374.4,3692.1"
         style="fill:#ea5983;fill-opacity:1;fill-rule:nonzero;stroke:none"
         id="path70" />
      <path
         d="m 36639.5,34219.1 c 0,0 -94.5,-2855.2 906.4,-2680.7 847.2,147.8 922.6,2741.5 22.6,5339 0,0 -3934.7,-2437.4 -3454.2,-3926.8 480.2,-1488.4 2525.2,1268.5 2525.2,1268.5"
         style="fill:#ea5983;fill-opacity:1;fill-rule:nonzero;stroke:none"
         id="path72" />
      <path
         d="m 15243.9,38717.2 c 251.9,-1543.6 2686.6,876 2686.6,876 0,0 -521,-2808.9 494.8,-2786.2 630.8,14.1 1048,1392.4 1027.7,3193 h -3587.2 c -424.1,-419.8 -690.7,-861.6 -621.9,-1282.8"
         style="fill:#f05d71;fill-opacity:1;fill-rule:nonzero;stroke:none"
         id="path74" />
      <path
         d="m 26624.3,34287.6 c 0,0 975.7,-2685 1839.6,-2150.1 731.2,452.6 -164.8,2887.7 -1967.5,4963.1 0,0 -2743.8,-3727.5 -1743.1,-4930.7 1000,-1202.5 1871,2117.7 1871,2117.7"
         style="fill:#f05d71;fill-opacity:1;fill-rule:nonzero;stroke:none"
         id="path76" />
      <path
         d="m 8651.03,35875.8 c -973.45,1224.1 -1916.92,-2076.3 -1916.92,-2076.3 0,0 -916.74,2705.7 -1792.16,2189.9 -740.91,-436.5 101.6,-2890.6 1858.4,-5005 0,0 2824.75,3666.5 1850.68,4891.4"
         style="fill:#f05d71;fill-opacity:1;fill-rule:nonzero;stroke:none"
         id="path78" />
      <path
         d="m 12681.1,26984 c 1024.6,-1181.6 1827,2155.8 1827,2155.8 0,0 1030.8,-2664.3 1883.6,-2111.8 721.6,467.6 -224.4,2883.8 -2069.4,4921.6 0,0 -2666.4,-3783.2 -1641.2,-4965.6"
         style="fill:#f05d71;fill-opacity:1;fill-rule:nonzero;stroke:none"
         id="path80" />
      <path
         d="m 20207.1,27427.4 c -851.6,-119.4 -1013.4,-2709.1 -200.6,-5335.2 0,0 4013.8,2304.9 3583.2,3809.5 -430.3,1503.6 -2566,-1183.6 -2566,-1183.6 0,0 189.6,2850.4 -816.6,2709.3"
         style="fill:#f05d71;fill-opacity:1;fill-rule:nonzero;stroke:none"
         id="path82" />
      <path
         d="m 8502.36,17387.6 c 1419.55,-656.4 780.06,2716 780.06,2716 0,0 2034.38,-2005.6 2584.88,-1151.6 465.8,722.8 -1389.2,2537.1 -3908.57,3637 0,0 -876.83,-4544.6 543.63,-5201.4"
         style="fill:#f05d71;fill-opacity:1;fill-rule:nonzero;stroke:none"
         id="path84" />
      <path
         d="m 17466.7,17309 c -1268.2,915.3 -1284.1,-2517.2 -1284.1,-2517.2 0,0 -1614.2,2357 -2317.5,1623.7 -595.3,-620.6 879.4,-2755.5 3142.5,-4316.1 0,0 1728.1,4293.8 459.1,5209.6"
         style="fill:#f05d71;fill-opacity:1;fill-rule:nonzero;stroke:none"
         id="path86" />
      <path
         d="m 10970.9,8088.3 c 0,0 302.4,4618.6 -1188.98,5092.9 -1490.41,473.9 -434.75,-2792.2 -434.75,-2792.2 0,0 -2268.93,1735.8 -2708.43,819.7 C 6266.78,10433.4 8333.92,8865 10970.9,8088.3"
         style="fill:#f05d71;fill-opacity:1;fill-rule:nonzero;stroke:none"
         id="path88" />
      <path
         d="M 583.184,31993.9 C 323.406,32104.5 134.766,32085.8 0,31981.1 v -4566.6 c 402.473,-217.5 834.594,-421.7 1286.92,-602.8 0,0 736.29,4569.5 -703.736,5182.2"
         style="fill:#f05d71;fill-opacity:1;fill-rule:nonzero;stroke:none"
         id="path90" />
      <path
         d="m 13787.7,13661.1 c 0,0 -1381.5,4417.5 -2943.6,4322.7 -1561.12,-94.7 600.2,-2761.4 600.2,-2761.4 0,0 -2741.91,802.1 -2821.92,-210.9 -67.71,-857.2 2425.62,-1575.7 5165.32,-1350.4"
         style="fill:#f5839b;fill-opacity:1;fill-rule:nonzero;stroke:none"
         id="path92" />
      <path
         d="m 34341.2,36630.4 c 1389.1,-718.7 899.6,2678.8 899.6,2678.8 0,0 1943.6,-2093.8 2531.3,-1265 276.8,390.3 -149.4,1150 -1007.1,1955.8 h -3053.6 c -153.2,-1331.2 -160,-2961 629.8,-3369.6"
         style="fill:#f05d71;fill-opacity:1;fill-rule:nonzero;stroke:none"
         id="path94" />
      <path
         d="M 3063.37,40000 H 956.543 c -294.988,-271.7 -498.609,-492.8 -498.609,-492.8 0,0 28.035,200.2 50.097,492.8 H 0 v -2644.5 c 1011.69,564.1 2729.51,1645.3 3063.37,2644.5"
         style="fill:#ffffff;fill-opacity:1;fill-rule:nonzero;stroke:none"
         id="path96" />
      <path
         d="m 10541.8,31328.9 c 1395.9,-705.3 874.1,2687.3 874.1,2687.3 0,0 1963.4,-2075.2 2543.2,-1240.8 490.7,706.2 -1300.1,2583.8 -3779.7,3770.7 0,0 -1034.32,-4511.4 362.4,-5217.2"
         style="fill:#ffffff;fill-opacity:1;fill-rule:nonzero;stroke:none"
         id="path98" />
      <path
         d="m 4573.01,31769.5 c -1558.8,127 203.73,-2818.5 203.73,-2818.5 0,0 -2600.94,1181.7 -2823.36,190.3 -188.24,-839.1 2178.43,-1902.9 4922.5,-2067.3 0,0 -743.08,4568.5 -2302.87,4695.5"
         style="fill:#ffffff;fill-opacity:1;fill-rule:nonzero;stroke:none"
         id="path100" />
      <path
         d="m 18488.1,32325.3 c -858.6,-48.5 -1234.2,-2616 -641.5,-5300.3 0,0 4190.8,1964.7 3886.2,3499.8 -304.4,1534 -2655.1,-967.2 -2655.1,-967.2 0,0 424.8,2825 -589.6,2767.7"
         style="fill:#ffffff;fill-opacity:1;fill-rule:nonzero;stroke:none"
         id="path102" />
      <path
         d="m 14177.6,22395.7 c -858.5,50 -1525.4,-2457.6 -1243.6,-5192.1 0,0 4388,1472.3 4261,3032.1 -126.8,1558.9 -2748.3,-657 -2748.3,-657 0,0 745.3,2757.9 -269.1,2817"
         style="fill:#ffffff;fill-opacity:1;fill-rule:nonzero;stroke:none"
         id="path104" />
      <path
         d="m 20678.8,15022.3 c 0,0 578.1,-2797.7 1510.2,-2393.1 788.8,342.4 253.5,2881.3 -1230.8,5195.1 0,0 -3253,-3292.6 -2436.4,-4627.6 816,-1334.2 2157,1825.6 2157,1825.6"
         style="fill:#ffffff;fill-opacity:1;fill-rule:nonzero;stroke:none"
         id="path106" />
      <path
         d="m 26536.6,10449.8 c 594.4,-1446.7 2419,1460.7 2419,1460.7 0,0 127.6,-2853.9 1111.9,-2602.1 833.2,213.1 706.9,2804.8 -392.1,5324.5 0,0 -3733.5,-2735.6 -3138.8,-4183.1"
         style="fill:#ffffff;fill-opacity:1;fill-rule:nonzero;stroke:none"
         id="path108" />
      <path
         d="m 1298.79,14870.4 c 854,100.9 1072.22,2686.5 316.75,5329.6 0,0 -775.384,-423.1 -1615.54,-1025.7 v -2164 c 317.582,317.3 541.395,586.7 541.395,586.7 0,0 -251.668,-2845.7 757.395,-2726.6"
         style="fill:#ffffff;fill-opacity:1;fill-rule:nonzero;stroke:none"
         id="path110" />
      <path
         d="m 33170.5,3205.8 c 504.5,-1480.3 2504,1309.7 2504,1309.7 0,0 -47.7,-2856.3 950.3,-2665.4 844.6,161.7 877.5,2756.2 -65,5338.6 0,0 -3894.2,-2501.6 -3389.3,-3982.9"
         style="fill:#ea5983;fill-opacity:1;fill-rule:nonzero;stroke:none"
         id="path112" />
      <path
         d="m 29786.6,21007.8 c 987.9,-1212.5 1892.2,2098.8 1892.2,2098.8 0,0 948.7,-2694.7 1818,-2168.5 735.7,445.2 -135.9,2889.2 -1917.6,4982.7 0,0 -2781.1,-3699.8 -1792.6,-4913"
         style="fill:#f05d71;fill-opacity:1;fill-rule:nonzero;stroke:none"
         id="path114" />
      <path
         d="m 25001.9,14847.1 c 0,0 2485.3,-1408.9 2795.2,-441.2 262.3,819 -2000.1,2089.5 -4718.6,2497.9 0,0 332.8,-4616.5 1875.1,-4882.1 1541.2,-265.5 48.3,2825.4 48.3,2825.4"
         style="fill:#f05d71;fill-opacity:1;fill-rule:nonzero;stroke:none"
         id="path116" />
      <path
         d="m 26702.2,7710.3 c 0,0 2281.4,-1719.4 2714.2,-800.2 366.4,778 -1712,2331.4 -4354.6,3089 0,0 -268.9,-4620.6 1225.8,-5084.1 1493.8,-463.2 414.6,2795.3 414.6,2795.3"
         style="fill:#f05d71;fill-opacity:1;fill-rule:nonzero;stroke:none"
         id="path118" />
      <path
         d="m 35940.9,18510.9 c 0,0 -1199.2,2592.9 -2014.8,1986.9 -690.3,-512.8 408.4,-2863.5 2380.1,-4779.1 0,0 2418.8,3946.2 1320,5060.5 -1098.1,1113.6 -1685.3,-2268.3 -1685.3,-2268.3"
         style="fill:#f05d71;fill-opacity:1;fill-rule:nonzero;stroke:none"
         id="path120" />
      <path
         d="m 32057.3,13386.9 c -387.8,-1515.1 2812.5,-274 2812.5,-274 0,0 -1603,-2364.7 -663.2,-2750.9 795.4,-327 2242.7,1826.7 2867,4503.8 0,0 -4628.3,37.2 -5016.3,-1478.9"
         style="fill:#f05d71;fill-opacity:1;fill-rule:nonzero;stroke:none"
         id="path122" />
      <path
         d="m 33699.4,24251.6 c 158.9,-1555.8 2734.3,713.4 2734.3,713.4 0,0 -688.4,-2772.5 326.9,-2810.8 859.4,-32.3 1474.5,2488.5 1136.6,5216.6 0,0 -4356.8,-1562.3 -4197.8,-3119.2"
         style="fill:#f5839b;fill-opacity:1;fill-rule:nonzero;stroke:none"
         id="path124" />
      <path
         d="m 31064.9,14318.2 c 1386.9,-723 908,2676 908,2676 0,0 1937,-2099.9 2527.4,-1272.9 499.6,699.9 -1267.4,2600.1 -3731.7,3818.3 0,0 -1091.4,-4498 296.3,-5221.4"
         style="fill:#f5839b;fill-opacity:1;fill-rule:nonzero;stroke:none"
         id="path126" />
      <path
         d="m 35186.9,7363.9 c 524.3,681.6 -1173.6,2643.7 -3592.8,3949.2 0,0 -1251.4,-4456.1 109.5,-5228.7 1360.1,-772 1003.1,2641.9 1003.1,2641.9 0,0 1860.7,-2167.7 2480.2,-1362.4"
         style="fill:#f5839b;fill-opacity:1;fill-rule:nonzero;stroke:none"
         id="path128" />
      <path
         d="m 36788.3,28190.5 c 498.1,700.9 -1273,2597.3 -3740,3810.1 0,0 -1081.6,-4500.3 307.7,-5220.7 1388.4,-720 902.2,2677.9 902.2,2677.9 0,0 1941.5,-2095.6 2530.1,-1267.3"
         style="fill:#ffffff;fill-opacity:1;fill-rule:nonzero;stroke:none"
         id="path130" />
      <path
         d="m 24267.3,25778.6 c -467.7,-721.7 1382.9,-2540.5 3899.5,-3646.7 0,0 888.1,4542.4 -530.7,5202.8 -1417.9,659.9 -786.8,-2714.1 -786.8,-2714.1 0,0 -2029.4,2010.6 -2582,1158"
         style="fill:#ffffff;fill-opacity:1;fill-rule:nonzero;stroke:none"
         id="path132" />
      <path
         d="M 2388.94,5751.7 C 2598.54,6319.4 1568.82,7165.1 0,7800 V 6092.4 C 697.637,5710.6 2125.05,5036.9 2388.94,5751.7"
         style="fill:#f05d71;fill-opacity:1;fill-rule:nonzero;stroke:none"
         id="path134" />
      <path
         d="M 0,5209.2 V 3600.1 c 278.023,285.6 170.918,989.6 0,1609.1"
         style="fill:#f05d71;fill-opacity:1;fill-rule:nonzero;stroke:none"
         id="path136" />
      <path
         d="m 39342.1,34033.9 c 37.7,-471.7 304.4,-598.1 657.9,-545.1 v 1715.1 c -419.2,-367.8 -690.1,-765.7 -657.9,-1170"
         style="fill:#f5839b;fill-opacity:1;fill-rule:nonzero;stroke:none"
         id="path138" />
      <path
         d="m 38569.8,20737.8 c 0,0 642.8,211.4 1430.2,559.7 v 4588.9 c -46.4,19.9 -98,32.3 -155.3,35.9 -858.2,55.2 -1540.1,-2448.3 -1274.9,-5184.5"
         style="fill:#ea5983;fill-opacity:1;fill-rule:nonzero;stroke:none"
         id="path140" />
      <path
         d="m 39444.6,11234.9 c 0,0 -2383.9,1574.1 -2758.8,629.7 -267.2,-673.2 1230.9,-1787.5 3314.2,-2475.9 v 4511.7 c -97.3,71.2 -202.2,122.5 -315.5,150.1 -1519.7,369.4 -239.9,-2815.6 -239.9,-2815.6"
         style="fill:#ea5983;fill-opacity:1;fill-rule:nonzero;stroke:none"
         id="path142" />
      <path
         d="m 39887.2,29255.1 c 0,0 -2095.2,1942 -2619.1,1071.4 -364.8,-606.3 863.6,-1902.5 2731.9,-2912 v 4566.6 c -611.8,-475.5 -112.8,-2726 -112.8,-2726"
         style="fill:#f05d71;fill-opacity:1;fill-rule:nonzero;stroke:none"
         id="path144" />
      <path
         d="m 37950.2,16469.6 c 270.5,-1029.5 1373.1,-135.4 2049.8,540.7 v 2164 c -1083.1,-777 -2273.8,-1852.4 -2049.8,-2704.7"
         style="fill:#ffffff;fill-opacity:1;fill-rule:nonzero;stroke:none"
         id="path146" />
      <path
         d="m 39443.9,3494 c 264.4,-57.5 442.4,-10.7 556.1,106.1 v 1609.1 c -163.1,591.2 -384.3,1105.4 -384.3,1105.4 0,0 151.6,-94.9 384.3,-222.2 V 7800 c -660.5,267.4 -1416.6,497.3 -2216,653.4 0,0 130.8,-4626.6 1659.9,-4959.4"
         style="fill:#f05d71;fill-opacity:1;fill-rule:nonzero;stroke:none"
         id="path148" />
      <path
         d="m 24496,36934.9 c 0,0 562.4,1608.7 712.1,3065.1 h -1664.5 c -3.1,-248.6 3.8,-413.7 3.8,-413.7 0,0 -132.9,176 -339.2,413.7 h -1925.4 c 491,-905.6 1689.8,-2115.4 3213.2,-3065.1"
         style="fill:#ffffff;fill-opacity:1;fill-rule:nonzero;stroke:none"
         id="path150" />
      <path
         d="m 33922.3,35436.7 c -375.6,1518.2 -2607.2,-1089.8 -2607.2,-1089.8 0,0 292.8,2841.7 -717.9,2737.1 -855.4,-88.4 -1111,-2670.6 -393.8,-5324.4 0,0 4094.7,2157.9 3718.9,3677.1"
         style="fill:#ffffff;fill-opacity:1;fill-rule:nonzero;stroke:none"
         id="path152" />
      <path
         d="m 4305.21,38619.8 c 368.09,-1520 2612.54,1077 2612.54,1077 0,0 -306.72,-2840.2 704.46,-2740.6 602.27,59.3 913.52,1355.1 799.66,3043.8 H 4875.76 c -419.53,-467.8 -675.02,-948.8 -570.55,-1380.2"
         style="fill:#ea5983;fill-opacity:1;fill-rule:nonzero;stroke:none"
         id="path154" />
      <path
         d="M 10136,1079.4 C 9899.98,904.199 9873.02,514.098 10018.4,0 h 1636.8 c -423,680.301 -1037.8,1436.9 -1519.2,1079.4"
         style="fill:#f5839b;fill-opacity:1;fill-rule:nonzero;stroke:none"
         id="path156" />
      <path
         d="M 13836.2,1359.9 C 13123.4,2083.2 12625.5,911.102 12364,0 h 1714.2 c 93.3,568.301 49.7,1064 -242,1359.9"
         style="fill:#f5839b;fill-opacity:1;fill-rule:nonzero;stroke:none"
         id="path158" />
      <path
         d="m 28104.3,1644.8 c -402.8,-83.7 -611,-721.398 -611,-1644.8 h 1539 c -95.8,800.398 -334.3,1768.1 -928,1644.8"
         style="fill:#ea5983;fill-opacity:1;fill-rule:nonzero;stroke:none"
         id="path160" />
      <path
         d="M 31579.6,343.898 C 31279.7,1180.4 30519,630.699 29917.9,0 h 1710.2 c 5.6,119.602 -9.3,234.699 -48.5,343.898"
         style="fill:#ea5983;fill-opacity:1;fill-rule:nonzero;stroke:none"
         id="path162" />
      <path
         d="M 15865.8,0 H 19453 c -7.4,653.5 -72.4,1362.6 -205.8,2082.4 0,0 -2250.7,-963 -3381.4,-2082.4"
         style="fill:#f05d71;fill-opacity:1;fill-rule:nonzero;stroke:none"
         id="path164" />
      <path
         d="M 33711.4,0 H 36765 c -683.7,642.301 -1641.6,1313.9 -2736.4,1850.8 0,0 -200.8,-839.2 -317.2,-1850.8"
         style="fill:#f05d71;fill-opacity:1;fill-rule:nonzero;stroke:none"
         id="path166" />
      <path
         d="M 21157.2,1101.1 C 20960.8,876.5 21021.9,481.203 21282.8,0 h 1925.4 c -536.1,618 -1568.1,1653.6 -2051,1101.1"
         style="fill:#ffffff;fill-opacity:1;fill-rule:nonzero;stroke:none"
         id="path168" />
      <path
         d="M 24713.7,2160.2 C 23691.7,2828.1 23554.6,884.801 23543.6,0 h 1664.5 c 97,943.703 20.7,1823.5 -494.4,2160.2"
         style="fill:#ffffff;fill-opacity:1;fill-rule:nonzero;stroke:none"
         id="path170" />
      <path
         d="m 4875.76,0 h 3546.11 c -47.93,710.902 -171.18,1491.4 -379.79,2278.6 0,0 -2106.66,-1097.1 -3166.32,-2278.6"
         style="fill:#ea5983;fill-opacity:1;fill-rule:nonzero;stroke:none"
         id="path172" />
      <path
         d="m 15914.7,7712.8 c 749.2,-1372.9 2244.4,1716.9 2244.4,1716.9 0,0 439.4,-2822.8 1390.3,-2464.7 804.8,303 395.4,2865.3 -972.9,5249.5 0,0 -3411.5,-3128 -2661.8,-4501.7"
         style="fill:#f5839b;fill-opacity:1;fill-rule:nonzero;stroke:none"
         id="path174" />
      <path
         d="m 22175.6,4299.9 c 0,0 576.2,2798 -439.9,2795.4 -859.9,-2.3 -1373.1,-2545.8 -925.6,-5258.1 0,0 4290.4,1736.4 4068.8,3285.6 -221.4,1548.2 -2703.3,-822.9 -2703.3,-822.9"
         style="fill:#f5839b;fill-opacity:1;fill-rule:nonzero;stroke:none"
         id="path176" />
      <path
         d="m 29144.3,3944.9 c 0,0 2140.5,1891.9 1326.3,2499.7 -689.1,514.4 -2626.4,-1211.7 -3896.8,-3649.5 0,0 4473.7,-1186.9 5226.5,185.1 752.3,1371.1 -2656,964.7 -2656,964.7"
         style="fill:#ffffff;fill-opacity:1;fill-rule:nonzero;stroke:none"
         id="path178" />
      <path
         d="M 3103.14,501.297 C 2877.86,1579.2 1658.47,646.398 956.543,0 H 3063.37 c 56.96,170.5 73.79,338.602 39.77,501.297"
         style="fill:#ffffff;fill-opacity:1;fill-rule:nonzero;stroke:none"
         id="path180" />
      <path
         d="M 0,2253.1 V 0 H 508.031 C 564.203,744.801 581.695,2088.2 0,2253.1"
         style="fill:#ffffff;fill-opacity:1;fill-rule:nonzero;stroke:none"
         id="path182" />
      <path
         d="m 12319.7,3737.1 c 0,0 2075.6,1963 1241.4,2543 C 12855,6771 10977,4980.5 9789.49,2501.2 c 0,0 4511.21,-1035.3 5217.31,361.3 705.7,1395.7 -2687.1,874.6 -2687.1,874.6"
         style="fill:#ffffff;fill-opacity:1;fill-rule:nonzero;stroke:none"
         id="path184" />
      <path
         d="m 39252.7,36962.2 c 0,0 306.7,147.7 747.3,393.3 V 40000 h -1054.2 c -36,-888.9 56.2,-1954.6 306.9,-3037.8"
         style="fill:#ffffff;fill-opacity:1;fill-rule:nonzero;stroke:none"
         id="path186" />
      <path
         d="M 39840.3,2268.8 C 39329.3,2234.7 38998.7,1308.9 38945.8,0 H 40000 v 2253.1 c -48.9,13.9 -102,19.5 -159.7,15.7"
         style="fill:#ffffff;fill-opacity:1;fill-rule:nonzero;stroke:none"
         id="path188" />
    </g>
  </g>
</svg>
